<?xml version="1.0" standalone="no"?>
<!DOCTYPE svg PUBLIC "-//W3C//DTD SVG 20010904//EN"
 "http://www.w3.org/TR/2001/REC-SVG-20010904/DTD/svg10.dtd">
<svg version="1.0"
  xmlns="http://www.w3.org/2000/svg" width="241.000000pt" height="120.000000pt" viewBox="0 0 241.000000 120.000000" preserveAspectRatio="xMidYMid meet">

  <g transform="translate(0.000000,120.000000) scale(0.100000,-0.100000)" fill="#000000" stroke="none">
    <path d="M0 600 l0 -600 1205 0 1205 0 0 600 0 600 -1205 0 -1205 0 0 -600z
m1114 325 c8 -9 27 -38 42 -65 l27 -51 37 63 c34 59 38 63 76 66 46 3 55 -4
103 -91 l33 -57 -26 11 c-42 19 -68 -1 -120 -90 -25 -44 -58 -88 -71 -97 -38
-25 -76 -4 -109 56 -15 27 -31 52 -36 55 -5 3 -18 -12 -29 -34 -29 -56 -71
-83 -132 -84 -27 0 -53 3 -59 9 -9 9 131 265 168 307 19 21 75 22 96 2z m355
-211 c26 -33 26 -55 3 -85 -26 -31 -78 -31 -104 0 -24 31 -23 60 4 88 29 31
71 30 97 -3z m-204 -187 c10 -37 1 -120 -12 -125 -10 -3 -13 16 -13 72 0 74
13 101 25 53z m143 1 c14 -12 16 -38 3 -38 -5 0 -14 7 -21 15 -26 31 -70 11
-70 -31 0 -23 24 -54 41 -54 5 0 17 9 26 20 20 22 33 26 33 8 0 -20 -32 -48
-56 -48 -38 0 -53 10 -64 44 -25 76 47 132 108 84z m72 -22 c0 -17 5 -15 34
13 38 36 63 26 28 -12 l-20 -22 24 -35 c28 -40 30 -50 10 -50 -8 0 -24 16 -36
36 -24 37 -36 36 -42 -5 -1 -14 -9 -26 -15 -29 -10 -3 -13 15 -13 66 0 38 3
72 7 75 9 10 23 -13 23 -37z m198 28 c23 -16 29 -34 11 -34 -6 0 -17 7 -25 15
-15 15 -47 10 -41 -8 1 -5 18 -15 37 -21 38 -12 51 -45 30 -72 -23 -27 -100
-11 -100 21 0 19 14 19 30 0 18 -21 50 -19 50 4 0 12 -11 21 -31 27 -18 5 -37
17 -43 27 -9 15 -7 22 13 38 28 23 40 24 69 3z m-957 -36 l12 -43 12 40 c8 29
18 41 33 43 21 3 22 0 22 -67 0 -79 -17 -97 -22 -23 l-4 47 -13 -47 c-17 -59
-37 -61 -51 -5 -17 65 -18 66 -19 9 -1 -72 -25 -66 -29 8 -4 64 2 80 27 80 15
0 23 -11 32 -42z m219 32 c0 -5 -18 -10 -40 -10 -29 0 -40 -4 -40 -15 0 -10
11 -15 35 -15 19 0 35 -4 35 -10 0 -5 -16 -10 -35 -10 -31 0 -35 -3 -35 -25 0
-22 4 -25 40 -25 22 0 40 -5 40 -11 0 -6 -21 -9 -52 -7 l-53 3 -3 68 -3 67 56
0 c30 0 55 -4 55 -10z m130 0 c0 -5 -9 -10 -20 -10 -16 0 -19 -8 -22 -57 -4
-81 -28 -85 -28 -4 0 58 -1 61 -25 61 -14 0 -25 5 -25 10 0 6 27 10 60 10 33
0 60 -4 60 -10z m134 -12 c8 -13 6 -21 -7 -36 -15 -16 -15 -21 -2 -38 8 -10
15 -25 15 -31 0 -24 -25 -13 -42 17 -23 40 -48 40 -48 0 0 -20 -5 -30 -15 -30
-12 0 -15 15 -15 71 l0 70 51 -3 c36 -2 55 -8 63 -20z"/>
    <path d="M1120 500 c0 -21 24 -27 49 -11 19 12 4 31 -25 31 -17 0 -24 -5 -24
-20z"/>
  </g>
</svg>
